<?xml version="1.0" encoding="utf-8"?>
<!-- Generator: Adobe Illustrator 16.0.0, SVG Export Plug-In . SVG Version: 6.00 Build 0)  -->
<!DOCTYPE svg PUBLIC "-//W3C//DTD SVG 1.1//EN" "http://www.w3.org/Graphics/SVG/1.1/DTD/svg11.dtd">
<svg version="1.1" id="Layer_1" xmlns="http://www.w3.org/2000/svg" xmlns:xlink="http://www.w3.org/1999/xlink" x="0px" y="0px"
	 width="395.604px" height="369.231px" viewBox="0 0 395.604 369.231" enable-background="new 0 0 395.604 369.231"
	 xml:space="preserve">
<polyline fill="#ACC74E" stroke="#000000" stroke-width="4" stroke-miterlimit="10" points="105.002,95.967 9.352,12.146 
	9.352,290.649 103.352,359.967 "/>
<rect x="104.352" y="94.967" fill="#ACC74E" stroke="#000000" stroke-width="4" stroke-miterlimit="10" width="275" height="264"/>
<polygon fill="#ACC74E" stroke="#000000" stroke-width="4" stroke-miterlimit="10" points="378.352,94.679 293.852,9.967 
	11.352,10.146 104.002,95.833 "/>
<g>
	<g>
		<g>
			<g>
				<g>
					<g>
						<rect x="9.352" y="271.966" fill="none" width="47.5" height="30.002"/>
					</g>
					<g>
						<rect x="11.999" y="284.958" fill="#231F20" width="12.649" height="4"/>
					</g>
					<g>
						<rect x="29.919" y="284.958" fill="#231F20" width="6.324" height="4"/>
					</g>
					<g>
						<rect x="41.514" y="284.958" fill="#231F20" width="12.649" height="4"/>
					</g>
				</g>
			</g>
			<g>
				<g>
					<g>
						<rect x="56.852" y="271.966" fill="none" width="47.5" height="30.002"/>
					</g>
					<g>
						<rect x="59.499" y="284.958" fill="#231F20" width="12.649" height="4"/>
					</g>
					<g>
						<rect x="77.419" y="284.958" fill="#231F20" width="6.324" height="4"/>
					</g>
					<g>
						<rect x="89.014" y="284.958" fill="#231F20" width="12.649" height="4"/>
					</g>
				</g>
			</g>
			<g>
				<g>
					<g>
						<rect x="104.352" y="271.966" fill="none" width="47.5" height="30.002"/>
					</g>
					<g>
						<rect x="106.999" y="284.958" fill="#231F20" width="12.649" height="4"/>
					</g>
					<g>
						<rect x="124.919" y="284.958" fill="#231F20" width="6.324" height="4"/>
					</g>
					<g>
						<rect x="136.514" y="284.958" fill="#231F20" width="12.649" height="4"/>
					</g>
				</g>
			</g>
			<g>
				<g>
					<g>
						<rect x="151.852" y="271.966" fill="none" width="47.5" height="30.002"/>
					</g>
					<g>
						<rect x="154.499" y="284.958" fill="#231F20" width="12.649" height="4"/>
					</g>
					<g>
						<rect x="172.419" y="284.958" fill="#231F20" width="6.324" height="4"/>
					</g>
					<g>
						<rect x="184.014" y="284.958" fill="#231F20" width="12.649" height="4"/>
					</g>
				</g>
			</g>
			<g>
				<g>
					<g>
						<rect x="199.352" y="271.966" fill="none" width="47.5" height="30.002"/>
					</g>
					<g>
						<rect x="201.999" y="284.958" fill="#231F20" width="12.649" height="4"/>
					</g>
					<g>
						<rect x="219.919" y="284.958" fill="#231F20" width="6.324" height="4"/>
					</g>
					<g>
						<rect x="231.514" y="284.958" fill="#231F20" width="12.649" height="4"/>
					</g>
				</g>
			</g>
			<g>
				<g>
					<g>
						<rect x="246.852" y="271.966" fill="none" width="47.5" height="30.002"/>
					</g>
					<g>
						<rect x="249.499" y="284.958" fill="#231F20" width="12.649" height="4"/>
					</g>
					<g>
						<rect x="267.419" y="284.958" fill="#231F20" width="6.324" height="4"/>
					</g>
					<g>
						<rect x="279.014" y="284.958" fill="#231F20" width="12.649" height="4"/>
					</g>
				</g>
			</g>
		</g>
	</g>
</g>
<g>
	<g>
		<g>
			<g>
				<g>
					<g>
						
							<rect x="287.753" y="289.967" transform="matrix(-0.763 -0.6463 0.6463 -0.763 359.3061 741.6586)" fill="none" width="55.698" height="30.001"/>
					</g>
					<g>
						
							<rect x="294.969" y="291.761" transform="matrix(-0.763 -0.6464 0.6464 -0.763 343.2383 713.3593)" fill="#231F20" width="14.832" height="4"/>
					</g>
					<g>
						
							<rect x="311.881" y="302.945" transform="matrix(-0.763 -0.6464 0.6464 -0.763 359.2916 741.6123)" fill="#231F20" width="7.415" height="4"/>
					</g>
					<g>
						
							<rect x="321.376" y="314.129" transform="matrix(-0.763 -0.6464 0.6464 -0.763 375.3374 769.8657)" fill="#231F20" width="14.832" height="4.001"/>
					</g>
				</g>
			</g>
			<g>
				<g>
					<g>
						
							<rect x="330.253" y="325.967" transform="matrix(-0.763 -0.6463 0.6463 -0.763 410.9671 832.5979)" fill="none" width="55.698" height="30.001"/>
					</g>
					<g>
						
							<rect x="337.469" y="327.761" transform="matrix(-0.763 -0.6464 0.6464 -0.763 394.8982 804.2987)" fill="#231F20" width="14.832" height="4"/>
					</g>
					<g>
						
							<rect x="354.381" y="338.945" transform="matrix(-0.763 -0.6464 0.6464 -0.763 410.9519 832.5517)" fill="#231F20" width="7.415" height="4"/>
					</g>
					<g>
						
							<rect x="363.876" y="350.129" transform="matrix(-0.763 -0.6464 0.6464 -0.763 426.9973 860.8052)" fill="#231F20" width="14.832" height="4.001"/>
					</g>
				</g>
			</g>
		</g>
	</g>
</g>
<g>
	<g>
		<g>
			<g>
				<g>
					<g>
						<rect x="278.852" y="240.8" fill="none" width="30" height="46.167"/>
					</g>
					<g>
						<rect x="291.844" y="272.1" fill="#231F20" width="4" height="12.294"/>
					</g>
					<g>
						<rect x="291.844" y="260.831" fill="#231F20" width="4" height="6.146"/>
					</g>
					<g>
						<rect x="291.844" y="243.414" fill="#231F20" width="4" height="12.294"/>
					</g>
				</g>
			</g>
			<g>
				<g>
					<g>
						<rect x="278.852" y="194.634" fill="none" width="30" height="46.166"/>
					</g>
					<g>
						<rect x="291.844" y="225.933" fill="#231F20" width="4" height="12.294"/>
					</g>
					<g>
						<rect x="291.844" y="214.664" fill="#231F20" width="4" height="6.147"/>
					</g>
					<g>
						<rect x="291.844" y="197.248" fill="#231F20" width="4" height="12.294"/>
					</g>
				</g>
			</g>
			<g>
				<g>
					<g>
						<rect x="278.852" y="148.467" fill="none" width="30" height="46.167"/>
					</g>
					<g>
						<rect x="291.844" y="179.767" fill="#231F20" width="4" height="12.294"/>
					</g>
					<g>
						<rect x="291.844" y="168.497" fill="#231F20" width="4" height="6.147"/>
					</g>
					<g>
						<rect x="291.844" y="151.081" fill="#231F20" width="4" height="12.294"/>
					</g>
				</g>
			</g>
			<g>
				<g>
					<g>
						<rect x="278.852" y="102.301" fill="none" width="30" height="46.167"/>
					</g>
					<g>
						<rect x="291.844" y="133.6" fill="#231F20" width="4" height="12.294"/>
					</g>
					<g>
						<rect x="291.844" y="122.331" fill="#231F20" width="4" height="6.147"/>
					</g>
					<g>
						<rect x="291.844" y="104.914" fill="#231F20" width="4" height="12.294"/>
					</g>
				</g>
			</g>
			<g>
				<g>
					<g>
						<rect x="278.852" y="56.134" fill="none" width="30" height="46.167"/>
					</g>
					<g>
						<rect x="291.844" y="87.433" fill="#231F20" width="4" height="12.294"/>
					</g>
					<g>
						<rect x="291.844" y="76.164" fill="#231F20" width="4" height="6.147"/>
					</g>
					<g>
						<rect x="291.844" y="58.747" fill="#231F20" width="4" height="12.294"/>
					</g>
				</g>
			</g>
			<g>
				<g>
					<g>
						<rect x="278.852" y="9.967" fill="none" width="30" height="46.167"/>
					</g>
					<g>
						<rect x="291.844" y="41.267" fill="#231F20" width="4" height="12.294"/>
					</g>
					<g>
						<rect x="291.844" y="29.997" fill="#231F20" width="4" height="6.147"/>
					</g>
					<g>
						<rect x="291.844" y="12.581" fill="#231F20" width="4" height="12.294"/>
					</g>
				</g>
			</g>
		</g>
	</g>
</g>
</svg>
