<?xml version="1.0" encoding="utf-8"?>
<!-- Generator: Adobe Illustrator 16.0.0, SVG Export Plug-In . SVG Version: 6.00 Build 0)  -->
<!DOCTYPE svg PUBLIC "-//W3C//DTD SVG 1.1//EN" "http://www.w3.org/Graphics/SVG/1.1/DTD/svg11.dtd">
<svg version="1.1" id="Layer_1" xmlns="http://www.w3.org/2000/svg" xmlns:xlink="http://www.w3.org/1999/xlink" x="0px" y="0px"
	 width="263.797px" height="439.174px" viewBox="0 0 263.797 439.174" enable-background="new 0 0 263.797 439.174"
	 xml:space="preserve">
<rect x="52.266" y="130.765" fill="#ACC74E" stroke="#000000" stroke-width="5" stroke-miterlimit="10" width="156" height="305"/>
<polygon fill="#ACC74E" stroke="#000000" stroke-width="5" stroke-miterlimit="10" points="251.395,88.91 207.266,132.789 
	209.266,433.265 257.51,386.021 "/>
<polygon fill="#ACC74E" stroke="#000000" stroke-width="5" stroke-miterlimit="10" points="130.266,2.946 250.395,84.91 
	207.266,132.789 52.266,130.765 6.106,72.671 "/>
<polygon fill="#ACC74E" stroke="#000000" stroke-width="5" stroke-miterlimit="10" points="6.266,77.265 6.266,384.265 
	50.266,432.015 55.266,131.265 "/>
<g>
	<g>
		<g>
			<g>
				<g>
					<g>
						<rect x="114.766" y="3.265" fill="none" width="30" height="46.286"/>
					</g>
					<g>
						<rect x="127.773" y="5.845" fill="#231F20" width="4" height="12.326"/>
					</g>
					<g>
						<rect x="127.773" y="23.306" fill="#231F20" width="4" height="6.163"/>
					</g>
					<g>
						<rect x="127.773" y="34.604" fill="#231F20" width="4" height="12.326"/>
					</g>
				</g>
			</g>
			<g>
				<g>
					<g>
						<rect x="114.766" y="49.55" fill="none" width="30" height="46.286"/>
					</g>
					<g>
						<rect x="127.773" y="52.13" fill="#231F20" width="4" height="12.326"/>
					</g>
					<g>
						<rect x="127.773" y="69.592" fill="#231F20" width="4" height="6.163"/>
					</g>
					<g>
						<rect x="127.773" y="80.89" fill="#231F20" width="4" height="12.326"/>
					</g>
				</g>
			</g>
			<g>
				<g>
					<g>
						<rect x="114.766" y="95.836" fill="none" width="30" height="46.286"/>
					</g>
					<g>
						<rect x="127.773" y="98.416" fill="#231F20" width="4" height="12.326"/>
					</g>
					<g>
						<rect x="127.773" y="115.877" fill="#231F20" width="4" height="6.163"/>
					</g>
					<g>
						<rect x="127.773" y="127.176" fill="#231F20" width="4" height="12.326"/>
					</g>
				</g>
			</g>
			<g>
				<g>
					<g>
						<rect x="114.766" y="142.122" fill="none" width="30" height="46.286"/>
					</g>
					<g>
						<rect x="127.773" y="144.702" fill="#231F20" width="4" height="12.326"/>
					</g>
					<g>
						<rect x="127.773" y="162.163" fill="#231F20" width="4" height="6.163"/>
					</g>
					<g>
						<rect x="127.773" y="173.462" fill="#231F20" width="4" height="12.326"/>
					</g>
				</g>
			</g>
			<g>
				<g>
					<g>
						<rect x="114.766" y="188.408" fill="none" width="30" height="46.286"/>
					</g>
					<g>
						<rect x="127.773" y="190.987" fill="#231F20" width="4" height="12.326"/>
					</g>
					<g>
						<rect x="127.773" y="208.449" fill="#231F20" width="4" height="6.163"/>
					</g>
					<g>
						<rect x="127.773" y="219.748" fill="#231F20" width="4" height="12.326"/>
					</g>
				</g>
			</g>
			<g>
				<g>
					<g>
						<rect x="114.766" y="234.692" fill="none" width="30" height="46.285"/>
					</g>
					<g>
						<rect x="127.773" y="237.272" fill="#231F20" width="4" height="12.326"/>
					</g>
					<g>
						<rect x="127.773" y="254.733" fill="#231F20" width="4" height="6.164"/>
					</g>
					<g>
						<rect x="127.773" y="266.033" fill="#231F20" width="4" height="12.325"/>
					</g>
				</g>
			</g>
			<g>
				<g>
					<g>
						<rect x="114.766" y="280.979" fill="none" width="30" height="46.285"/>
					</g>
					<g>
						<rect x="127.773" y="283.56" fill="#231F20" width="4" height="12.325"/>
					</g>
					<g>
						<rect x="127.773" y="301.021" fill="#231F20" width="4" height="6.162"/>
					</g>
					<g>
						<rect x="127.773" y="312.319" fill="#231F20" width="4" height="12.324"/>
					</g>
				</g>
			</g>
		</g>
	</g>
</g>
<g>
	<g>
		<g>
			<g>
				<g>
					<g>
						
							<rect x="86.864" y="321.76" transform="matrix(-0.9086 0.4177 -0.4177 -0.9086 349.8592 596.9587)" fill="none" width="45.492" height="30.002"/>
					</g>
					<g>
						
							<rect x="116.418" y="328.856" transform="matrix(-0.9086 0.4177 -0.4177 -0.9086 371.9449 580.3145)" fill="#231F20" width="12.114" height="4"/>
					</g>
					<g>
						
							<rect x="106.594" y="334.768" transform="matrix(-0.9086 0.4177 -0.4177 -0.9086 349.8841 596.9695)" fill="#231F20" width="6.058" height="4"/>
					</g>
					<g>
						
							<rect x="90.735" y="340.662" transform="matrix(-0.9086 0.4177 -0.4177 -0.9086 327.858 613.5757)" fill="#231F20" width="12.114" height="3.999"/>
					</g>
				</g>
			</g>
			<g>
				<g>
					<g>
						
							<rect x="45.532" y="340.762" transform="matrix(-0.9086 0.4177 -0.4177 -0.9086 278.9163 650.4833)" fill="none" width="45.492" height="30.002"/>
					</g>
					<g>
						
							<rect x="75.084" y="347.857" transform="matrix(-0.9086 0.4177 -0.4177 -0.9086 301.0091 633.8331)" fill="#231F20" width="12.114" height="4"/>
					</g>
					<g>
						
							<rect x="65.276" y="353.776" transform="matrix(-0.9085 0.4179 -0.4179 -0.9085 279.026 650.4609)" fill="#231F20" width="6.058" height="4"/>
					</g>
					<g>
						
							<rect x="49.401" y="359.664" transform="matrix(-0.9086 0.4177 -0.4177 -0.9086 256.9016 667.11)" fill="#231F20" width="12.114" height="4"/>
					</g>
				</g>
			</g>
			<g>
				<g>
					<g>
						
							<rect x="4.202" y="359.76" transform="matrix(-0.9086 0.4177 -0.4177 -0.9086 207.9696 704.0094)" fill="none" width="45.493" height="30.003"/>
					</g>
					<g>
						
							<rect x="33.752" y="366.859" transform="matrix(-0.9086 0.4177 -0.4177 -0.9086 230.0379 687.3773)" fill="#231F20" width="12.114" height="4"/>
					</g>
					<g>
						
							<rect x="23.926" y="372.769" transform="matrix(-0.9086 0.4177 -0.4177 -0.9086 207.9758 704.0258)" fill="#231F20" width="6.058" height="4"/>
					</g>
					<g>
						
							<rect x="8.069" y="378.666" transform="matrix(-0.9086 0.4177 -0.4177 -0.9086 185.9765 720.6274)" fill="#231F20" width="12.114" height="4"/>
					</g>
				</g>
			</g>
		</g>
	</g>
</g>
<g>
	<g>
		<g>
			<g>
				<g>
					<g>
						
							<rect x="128.106" y="322.055" transform="matrix(0.9079 0.4192 -0.4192 0.9079 155.2445 -32.449)" fill="none" width="46.718" height="30.002"/>
					</g>
					<g>
						
							<rect x="132.068" y="328.956" transform="matrix(0.9079 0.4192 -0.4192 0.9079 151.4591 -27.4881)" fill="#231F20" width="12.441" height="4"/>
					</g>
					<g>
						
							<rect x="148.352" y="335.057" transform="matrix(0.9078 0.4193 -0.4193 0.9078 155.2885 -32.4474)" fill="#231F20" width="6.221" height="4"/>
					</g>
					<g>
						
							<rect x="158.396" y="341.124" transform="matrix(0.9079 0.4192 -0.4192 0.9079 159.0175 -37.4036)" fill="#231F20" width="12.441" height="4"/>
					</g>
				</g>
			</g>
			<g>
				<g>
					<g>
						
							<rect x="170.521" y="341.64" transform="matrix(0.9079 0.4192 -0.4192 0.9079 167.3595 -48.4258)" fill="none" width="46.718" height="30.002"/>
					</g>
					<g>
						
							<rect x="174.478" y="348.523" transform="matrix(0.9078 0.4193 -0.4193 0.9078 163.642 -43.466)" fill="#231F20" width="12.441" height="4.001"/>
					</g>
					<g>
						
							<rect x="190.772" y="354.624" transform="matrix(0.9079 0.4192 -0.4192 0.9079 167.3445 -48.4274)" fill="#231F20" width="6.22" height="4"/>
					</g>
					<g>
						
							<rect x="200.809" y="360.71" transform="matrix(0.9079 0.4192 -0.4192 0.9079 171.1066 -53.378)" fill="#231F20" width="12.441" height="4"/>
					</g>
				</g>
			</g>
			<g>
				<g>
					<g>
						
							<rect x="212.926" y="361.227" transform="matrix(0.9079 0.4192 -0.4192 0.9079 179.4805 -64.3984)" fill="none" width="46.719" height="30.001"/>
					</g>
					<g>
						
							<rect x="216.868" y="368.128" transform="matrix(0.9079 0.4192 -0.4192 0.9079 175.7253 -59.4301)" fill="#231F20" width="12.441" height="3.999"/>
					</g>
					<g>
						
							<rect x="233.187" y="374.21" transform="matrix(0.9079 0.4192 -0.4192 0.9079 179.4893 -64.4067)" fill="#231F20" width="6.219" height="3.999"/>
					</g>
					<g>
						
							<rect x="243.253" y="380.292" transform="matrix(0.9079 0.4191 -0.4191 0.9079 183.2091 -69.3643)" fill="#231F20" width="12.442" height="4"/>
					</g>
				</g>
			</g>
		</g>
	</g>
</g>
</svg>
