<?xml version="1.0" encoding="utf-8"?>
<!-- Generator: Adobe Illustrator 16.0.0, SVG Export Plug-In . SVG Version: 6.00 Build 0)  -->
<!DOCTYPE svg PUBLIC "-//W3C//DTD SVG 1.1//EN" "http://www.w3.org/Graphics/SVG/1.1/DTD/svg11.dtd">
<svg version="1.1" id="Layer_1" xmlns="http://www.w3.org/2000/svg" xmlns:xlink="http://www.w3.org/1999/xlink" x="0px" y="0px"
	 width="247.143px" height="348.313px" viewBox="0 0 247.143 348.313" enable-background="new 0 0 247.143 348.313"
	 xml:space="preserve">
<polygon fill="#ACC74E" stroke="#000000" stroke-width="4" stroke-miterlimit="10" points="43.007,346.281 125.413,12.006 
	202.337,344.281 "/>
<polygon fill="#ACC74E" stroke="#000000" stroke-width="4" stroke-miterlimit="10" points="242.102,250.287 204.295,340.711 
	131.572,24.156 "/>
<polygon fill="#ACC74E" stroke="#000000" stroke-width="4" stroke-miterlimit="10" points="4.337,243.95 119.072,21.156 
	40.283,341.472 "/>
<g>
	<g>
		<g>
			<g>
				<g>
					<g>
						<rect x="110.007" y="11.281" fill="none" width="30" height="45"/>
					</g>
					<g>
						<rect x="123.015" y="13.79" fill="#231F20" width="4" height="11.983"/>
					</g>
					<g>
						<rect x="123.015" y="30.766" fill="#231F20" width="4" height="5.992"/>
					</g>
					<g>
						<rect x="123.015" y="41.75" fill="#231F20" width="4" height="11.983"/>
					</g>
				</g>
			</g>
			<g>
				<g>
					<g>
						<rect x="110.007" y="56.281" fill="none" width="30" height="45"/>
					</g>
					<g>
						<rect x="123.015" y="58.79" fill="#231F20" width="4" height="11.983"/>
					</g>
					<g>
						<rect x="123.015" y="75.766" fill="#231F20" width="4" height="5.992"/>
					</g>
					<g>
						<rect x="123.015" y="86.75" fill="#231F20" width="4" height="11.983"/>
					</g>
				</g>
			</g>
			<g>
				<g>
					<g>
						<rect x="110.007" y="101.281" fill="none" width="30" height="45"/>
					</g>
					<g>
						<rect x="123.015" y="103.79" fill="#231F20" width="4" height="11.983"/>
					</g>
					<g>
						<rect x="123.015" y="120.766" fill="#231F20" width="4" height="5.992"/>
					</g>
					<g>
						<rect x="123.015" y="131.75" fill="#231F20" width="4" height="11.983"/>
					</g>
				</g>
			</g>
			<g>
				<g>
					<g>
						<rect x="110.007" y="146.281" fill="none" width="30" height="45"/>
					</g>
					<g>
						<rect x="123.015" y="148.79" fill="#231F20" width="4" height="11.983"/>
					</g>
					<g>
						<rect x="123.015" y="165.766" fill="#231F20" width="4" height="5.992"/>
					</g>
					<g>
						<rect x="123.015" y="176.75" fill="#231F20" width="4" height="11.984"/>
					</g>
				</g>
			</g>
		</g>
	</g>
</g>
<g>
	<g>
		<g>
			<g>
				<g>
					<g>
						
							<rect x="200.475" y="219.622" transform="matrix(-0.9125 -0.4091 0.4091 -0.9125 327.9457 539.3927)" fill="none" width="42.373" height="30.001"/>
					</g>
					<g>
						
							<rect x="228.054" y="238.02" transform="matrix(-0.9125 -0.4091 0.4091 -0.9125 348.756 554.6379)" fill="#231F20" width="11.284" height="4"/>
					</g>
					<g>
						
							<rect x="218.864" y="232.648" transform="matrix(-0.9124 -0.4092 0.4092 -0.9124 327.9344 539.4668)" fill="#231F20" width="5.641" height="4"/>
					</g>
					<g>
						
							<rect x="204.029" y="227.248" transform="matrix(-0.9125 -0.4091 0.4091 -0.9125 307.2126 524.2108)" fill="#231F20" width="11.284" height="4.002"/>
					</g>
				</g>
			</g>
			<g>
				<g>
					<g>
						
							<rect x="161.828" y="202.27" transform="matrix(-0.9125 -0.409 0.409 -0.9125 261.1473 490.3914)" fill="none" width="42.373" height="29.999"/>
					</g>
					<g>
						
							<rect x="189.388" y="220.672" transform="matrix(-0.9125 -0.409 0.409 -0.9125 281.9254 505.636)" fill="#231F20" width="11.284" height="4"/>
					</g>
					<g>
						
							<rect x="180.196" y="215.288" transform="matrix(-0.9125 -0.409 0.409 -0.9125 261.153 490.425)" fill="#231F20" width="5.642" height="4"/>
					</g>
					<g>
						
							<rect x="165.362" y="209.915" transform="matrix(-0.9125 -0.4091 0.4091 -0.9125 240.3445 475.2452)" fill="#231F20" width="11.283" height="4"/>
					</g>
				</g>
			</g>
			<g>
				<g>
					<g>
						
							<rect x="123.142" y="184.952" transform="matrix(-0.9125 -0.4091 0.4091 -0.9125 194.2325 441.4528)" fill="none" width="42.375" height="30.001"/>
					</g>
					<g>
						
							<rect x="150.722" y="203.352" transform="matrix(-0.9125 -0.409 0.409 -0.9125 215.0597 456.6955)" fill="#231F20" width="11.284" height="4"/>
					</g>
					<g>
						
							<rect x="141.531" y="197.956" transform="matrix(-0.9125 -0.4092 0.4092 -0.9125 194.2549 441.4703)" fill="#231F20" width="5.642" height="4"/>
					</g>
					<g>
						
							<rect x="126.697" y="192.571" transform="matrix(-0.9125 -0.409 0.409 -0.9125 173.5208 426.2505)" fill="#231F20" width="11.284" height="4"/>
					</g>
				</g>
			</g>
		</g>
	</g>
</g>
<g>
	<g>
		<g>
			<g>
				<g>
					<g>
						
							<rect x="83.522" y="184.944" transform="matrix(-0.9163 0.4004 -0.4004 -0.9163 281.5898 341.0528)" fill="none" width="43.286" height="30"/>
					</g>
					<g>
						
							<rect x="111.761" y="192.556" transform="matrix(-0.9163 0.4004 -0.4004 -0.9163 303.1188 325.7737)" fill="#231F20" width="11.526" height="3.999"/>
					</g>
					<g>
						
							<rect x="102.307" y="197.956" transform="matrix(-0.9163 0.4005 -0.4005 -0.9163 281.6613 341.0393)" fill="#231F20" width="5.764" height="4"/>
					</g>
					<g>
						
							<rect x="87.098" y="203.33" transform="matrix(-0.9163 0.4004 -0.4004 -0.9163 260.175 356.2954)" fill="#231F20" width="11.528" height="4.001"/>
					</g>
				</g>
			</g>
			<g>
				<g>
					<g>
						
							<rect x="43.86" y="202.273" transform="matrix(-0.9163 0.4004 -0.4004 -0.9163 212.5298 390.1369)" fill="none" width="43.288" height="30"/>
					</g>
					<g>
						
							<rect x="72.098" y="209.902" transform="matrix(-0.9164 0.4003 -0.4003 -0.9164 234.0444 374.9128)" fill="#231F20" width="11.529" height="4.001"/>
					</g>
					<g>
						
							<rect x="62.645" y="215.271" transform="matrix(-0.9164 0.4003 -0.4003 -0.9164 212.5489 390.1417)" fill="#231F20" width="5.762" height="3.999"/>
					</g>
					<g>
						
							<rect x="47.432" y="220.662" transform="matrix(-0.9163 0.4004 -0.4004 -0.9163 191.093 405.3972)" fill="#231F20" width="11.527" height="4"/>
					</g>
				</g>
			</g>
			<g>
				<g>
					<g>
						
							<rect x="4.191" y="219.608" transform="matrix(-0.9163 0.4004 -0.4004 -0.9163 143.4449 439.2442)" fill="none" width="43.286" height="29.999"/>
					</g>
					<g>
						
							<rect x="32.413" y="227.224" transform="matrix(-0.9164 0.4004 -0.4004 -0.9164 164.9323 423.991)" fill="#231F20" width="11.528" height="4"/>
					</g>
					<g>
						
							<rect x="22.98" y="232.604" transform="matrix(-0.9163 0.4005 -0.4005 -0.9163 143.5062 439.2194)" fill="#231F20" width="5.762" height="4.001"/>
					</g>
					<g>
						
							<rect x="7.776" y="237.99" transform="matrix(-0.9163 0.4004 -0.4004 -0.9163 122.0434 454.4791)" fill="#231F20" width="11.526" height="4.001"/>
					</g>
				</g>
			</g>
		</g>
	</g>
</g>
</svg>
