<?xml version="1.0" encoding="utf-8"?>
<!-- Generator: Adobe Illustrator 16.0.0, SVG Export Plug-In . SVG Version: 6.00 Build 0)  -->
<!DOCTYPE svg PUBLIC "-//W3C//DTD SVG 1.1//EN" "http://www.w3.org/Graphics/SVG/1.1/DTD/svg11.dtd">
<svg version="1.1" id="Layer_1" xmlns="http://www.w3.org/2000/svg" xmlns:xlink="http://www.w3.org/1999/xlink" x="0px" y="0px"
	 width="365.128px" height="437.098px" viewBox="0 0 365.128 437.098" enable-background="new 0 0 365.128 437.098"
	 xml:space="preserve">
<polygon fill="#ACC74E" stroke="#000000" stroke-width="4" stroke-miterlimit="10" points="190.722,6.998 9.728,425.68 
	261.431,425.68 "/>
<polygon fill="#ACC74E" stroke="#000000" stroke-width="4" stroke-miterlimit="10" points="362.653,328.229 263.316,424.565 
	193.722,11.998 "/>
<g>
	<g>
		<g>
			<g>
				<g>
					<g>
						
							<rect x="161.987" y="14.758" transform="matrix(-0.206 0.9786 -0.9786 -0.206 252.9105 -145.6947)" fill="none" width="47.153" height="29.999"/>
					</g>
					<g>
						
							<rect x="182.327" y="13.404" transform="matrix(-0.2061 0.9785 -0.9785 -0.2061 242.5487 -165.9778)" fill="#231F20" width="12.557" height="4"/>
					</g>
					<g>
						
							<rect x="182.438" y="27.725" transform="matrix(-0.206 0.9785 -0.9785 -0.206 252.8974 -145.7477)" fill="#231F20" width="6.278" height="4"/>
					</g>
					<g>
						
							<rect x="176.289" y="42.075" transform="matrix(-0.2061 0.9785 -0.9785 -0.2061 263.3231 -125.4887)" fill="#231F20" width="12.557" height="4.001"/>
					</g>
				</g>
			</g>
			<g>
				<g>
					<g>
						
							<rect x="152.27" y="60.898" transform="matrix(-0.206 0.9785 -0.9785 -0.206 286.3422 -80.5392)" fill="none" width="47.151" height="29.999"/>
					</g>
					<g>
						
							<rect x="172.61" y="59.547" transform="matrix(-0.2061 0.9785 -0.9785 -0.2061 275.988 -100.8138)" fill="#231F20" width="12.557" height="4"/>
					</g>
					<g>
						
							<rect x="172.727" y="73.867" transform="matrix(-0.2059 0.9786 -0.9786 -0.2059 286.3214 -80.6084)" fill="#231F20" width="6.279" height="4"/>
					</g>
					<g>
						
							<rect x="166.572" y="88.218" transform="matrix(-0.2061 0.9785 -0.9785 -0.2061 296.7556 -60.3271)" fill="#231F20" width="12.557" height="4.001"/>
					</g>
				</g>
			</g>
			<g>
				<g>
					<g>
						
							<rect x="142.552" y="107.039" transform="matrix(-0.206 0.9786 -0.9786 -0.206 319.7736 -15.3855)" fill="none" width="47.153" height="29.999"/>
					</g>
					<g>
						
							<rect x="162.892" y="105.69" transform="matrix(-0.2061 0.9785 -0.9785 -0.2061 309.4139 -35.6541)" fill="#231F20" width="12.557" height="4"/>
					</g>
					<g>
						
							<rect x="163.011" y="120.007" transform="matrix(-0.2059 0.9786 -0.9786 -0.2059 319.7496 -15.4664)" fill="#231F20" width="6.278" height="4"/>
					</g>
					<g>
						
							<rect x="156.854" y="134.361" transform="matrix(-0.2061 0.9785 -0.9785 -0.2061 330.1876 4.834)" fill="#231F20" width="12.557" height="4.001"/>
					</g>
				</g>
			</g>
			<g>
				<g>
					<g>
						
							<rect x="132.835" y="153.179" transform="matrix(-0.206 0.9786 -0.9786 -0.206 353.2043 49.7684)" fill="none" width="47.151" height="29.999"/>
					</g>
					<g>
						
							<rect x="153.174" y="151.834" transform="matrix(-0.2061 0.9785 -0.9785 -0.2061 342.8463 29.5086)" fill="#231F20" width="12.557" height="4"/>
					</g>
					<g>
						
							<rect x="153.298" y="166.15" transform="matrix(-0.2059 0.9786 -0.9786 -0.2059 353.1979 49.6904)" fill="#231F20" width="6.279" height="4"/>
					</g>
					<g>
						
							<rect x="147.137" y="180.505" transform="matrix(-0.2061 0.9785 -0.9785 -0.2061 363.6238 70.0013)" fill="#231F20" width="12.558" height="4.001"/>
					</g>
				</g>
			</g>
			<g>
				<g>
					<g>
						
							<rect x="123.118" y="199.321" transform="matrix(-0.206 0.9786 -0.9786 -0.206 386.6382 114.9241)" fill="none" width="47.153" height="29.999"/>
					</g>
					<g>
						
							<rect x="143.458" y="197.976" transform="matrix(-0.2061 0.9785 -0.9785 -0.2061 376.2784 94.6686)" fill="#231F20" width="12.557" height="4"/>
					</g>
					<g>
						
							<rect x="143.584" y="212.288" transform="matrix(-0.2059 0.9786 -0.9786 -0.2059 386.6267 114.8246)" fill="#231F20" width="6.278" height="4"/>
					</g>
					<g>
						
							<rect x="137.419" y="226.649" transform="matrix(-0.2061 0.9785 -0.9785 -0.2061 397.0558 135.1611)" fill="#231F20" width="12.559" height="4.001"/>
					</g>
				</g>
			</g>
			<g>
				<g>
					<g>
						
							<rect x="113.401" y="245.461" transform="matrix(-0.206 0.9785 -0.9785 -0.206 420.0693 180.082)" fill="none" width="47.151" height="29.999"/>
					</g>
					<g>
						
							<rect x="133.738" y="244.117" transform="matrix(-0.2061 0.9785 -0.9785 -0.2061 409.7065 159.8298)" fill="#231F20" width="12.557" height="4"/>
					</g>
					<g>
						
							<rect x="133.872" y="258.438" transform="matrix(-0.2058 0.9786 -0.9786 -0.2058 420.0757 179.97)" fill="#231F20" width="6.279" height="4"/>
					</g>
					<g>
						
							<rect x="127.702" y="272.792" transform="matrix(-0.2061 0.9785 -0.9785 -0.2061 430.4885 200.3285)" fill="#231F20" width="12.558" height="4.001"/>
					</g>
				</g>
			</g>
			<g>
				<g>
					<g>
						
							<rect x="103.683" y="291.601" transform="matrix(-0.206 0.9785 -0.9785 -0.206 453.5003 245.2341)" fill="none" width="47.152" height="30"/>
					</g>
					<g>
						
							<rect x="124.021" y="290.264" transform="matrix(-0.2061 0.9785 -0.9785 -0.2061 443.1452 224.9975)" fill="#231F20" width="12.559" height="4"/>
					</g>
					<g>
						
							<rect x="124.158" y="304.582" transform="matrix(-0.2058 0.9786 -0.9786 -0.2058 453.5167 245.1176)" fill="#231F20" width="6.279" height="4"/>
					</g>
					<g>
						
							<rect x="117.984" y="318.93" transform="matrix(-0.2061 0.9785 -0.9785 -0.2061 463.9126 265.4783)" fill="#231F20" width="12.557" height="4.001"/>
					</g>
				</g>
			</g>
		</g>
	</g>
</g>
<g>
	<g>
		<g>
			<g>
				<g>
					<g>
						<rect x="122.42" y="314.68" fill="none" width="48.002" height="30"/>
					</g>
					<g>
						<rect x="125.096" y="327.672" fill="#231F20" width="12.782" height="4"/>
					</g>
					<g>
						<rect x="143.204" y="327.672" fill="#231F20" width="6.392" height="4"/>
					</g>
					<g>
						<rect x="154.922" y="327.672" fill="#231F20" width="12.783" height="4"/>
					</g>
				</g>
			</g>
			<g>
				<g>
					<g>
						<rect x="170.422" y="314.68" fill="none" width="48.001" height="30"/>
					</g>
					<g>
						<rect x="173.098" y="327.672" fill="#231F20" width="12.782" height="4"/>
					</g>
					<g>
						<rect x="191.207" y="327.672" fill="#231F20" width="6.392" height="4"/>
					</g>
					<g>
						<rect x="202.923" y="327.672" fill="#231F20" width="12.783" height="4"/>
					</g>
				</g>
			</g>
			<g>
				<g>
					<g>
						<rect x="218.423" y="314.68" fill="none" width="48.004" height="30"/>
					</g>
					<g>
						<rect x="221.1" y="327.672" fill="#231F20" width="12.782" height="4"/>
					</g>
					<g>
						<rect x="239.208" y="327.672" fill="#231F20" width="6.393" height="4"/>
					</g>
					<g>
						<rect x="250.927" y="327.672" fill="#231F20" width="12.781" height="4"/>
					</g>
				</g>
			</g>
			<g>
				<g>
					<g>
						<rect x="266.427" y="314.68" fill="none" width="48.002" height="30"/>
					</g>
					<g>
						<rect x="269.102" y="327.672" fill="#231F20" width="12.782" height="4"/>
					</g>
					<g>
						<rect x="287.21" y="327.672" fill="#231F20" width="6.393" height="4"/>
					</g>
					<g>
						<rect x="298.929" y="327.672" fill="#231F20" width="12.781" height="4"/>
					</g>
				</g>
			</g>
			<g>
				<g>
					<g>
						<rect x="314.429" y="314.68" fill="none" width="48.002" height="30"/>
					</g>
					<g>
						<rect x="317.104" y="327.672" fill="#231F20" width="12.782" height="4"/>
					</g>
					<g>
						<rect x="335.212" y="327.672" fill="#231F20" width="6.393" height="4"/>
					</g>
					<g>
						<rect x="346.931" y="327.672" fill="#231F20" width="12.783" height="4"/>
					</g>
				</g>
			</g>
		</g>
	</g>
</g>
<g>
	<g>
		<g>
			<g>
				<g>
					<g>
						
							<rect x="78.969" y="330.664" transform="matrix(-0.7612 0.6485 -0.6485 -0.7612 406.7033 541.5726)" fill="none" width="49.347" height="30.001"/>
					</g>
					<g>
						
							<rect x="108.761" y="333.721" transform="matrix(-0.7612 0.6485 -0.6485 -0.7612 420.8353 516.4899)" fill="#231F20" width="13.141" height="4"/>
					</g>
					<g>
						
							<rect x="100.396" y="343.681" transform="matrix(-0.7612 0.6485 -0.6485 -0.7612 406.78 541.5831)" fill="#231F20" width="6.572" height="4.002"/>
					</g>
					<g>
						
							<rect x="85.42" y="353.604" transform="matrix(-0.7612 0.6485 -0.6485 -0.7612 392.6211 566.644)" fill="#231F20" width="13.141" height="4"/>
					</g>
				</g>
			</g>
			<g>
				<g>
					<g>
						
							<rect x="41.405" y="362.668" transform="matrix(-0.7612 0.6485 -0.6485 -0.7612 361.3007 622.2973)" fill="none" width="49.346" height="30.001"/>
					</g>
					<g>
						
							<rect x="71.216" y="365.743" transform="matrix(-0.7613 0.6484 -0.6484 -0.7613 375.4605 597.2554)" fill="#231F20" width="13.142" height="4"/>
					</g>
					<g>
						
							<rect x="62.802" y="375.676" transform="matrix(-0.7613 0.6484 -0.6484 -0.7613 361.295 622.3362)" fill="#231F20" width="6.569" height="4"/>
					</g>
					<g>
						
							<rect x="47.877" y="385.627" transform="matrix(-0.7613 0.6485 -0.6485 -0.7613 347.2534 647.4069)" fill="#231F20" width="13.141" height="4.002"/>
					</g>
				</g>
			</g>
			<g>
				<g>
					<g>
						
							<rect x="3.846" y="394.664" transform="matrix(-0.7612 0.6485 -0.6485 -0.7612 315.9001 703.0082)" fill="none" width="49.347" height="30.001"/>
					</g>
					<g>
						
							<rect x="33.635" y="397.72" transform="matrix(-0.7612 0.6486 -0.6486 -0.7612 330.0565 677.8917)" fill="#231F20" width="13.142" height="4"/>
					</g>
					<g>
						
							<rect x="25.268" y="407.688" transform="matrix(-0.7614 0.6483 -0.6483 -0.7614 315.9037 703.0971)" fill="#231F20" width="6.57" height="4"/>
					</g>
					<g>
						
							<rect x="10.296" y="417.602" transform="matrix(-0.7612 0.6485 -0.6485 -0.7612 301.8118 728.0763)" fill="#231F20" width="13.141" height="4"/>
					</g>
				</g>
			</g>
		</g>
	</g>
</g>
</svg>
