<?xml version="1.0" encoding="utf-8"?>
<!-- Generator: Adobe Illustrator 16.0.0, SVG Export Plug-In . SVG Version: 6.00 Build 0)  -->
<!DOCTYPE svg PUBLIC "-//W3C//DTD SVG 1.1//EN" "http://www.w3.org/Graphics/SVG/1.1/DTD/svg11.dtd">
<svg version="1.1" id="Layer_1" xmlns="http://www.w3.org/2000/svg" xmlns:xlink="http://www.w3.org/1999/xlink" x="0px" y="0px"
	 width="173.111px" height="290.941px" viewBox="0 0 173.111 290.941" enable-background="new 0 0 173.111 290.941"
	 xml:space="preserve">
<rect x="4.108" y="53.74" fill="#ACC74E" stroke="#000000" stroke-width="4" stroke-miterlimit="10" width="116" height="233"/>
<polyline fill="#ACC74E" stroke="#000000" stroke-width="4" stroke-miterlimit="10" points="169.108,6.74 120.108,53.586 
	120.702,285.894 171.108,234.333 171.108,4.74 120.108,53.74 5.108,53.49 54.858,2.74 173.108,1.74 "/>
<g>
	<g>
		<g>
			<g>
				<g>
					<g>
						<rect x="47.608" y="2.74" fill="none" width="15" height="22.899"/>
					</g>
					<g>
						<rect x="54.112" y="4.016" fill="#231F20" width="2" height="6.099"/>
					</g>
					<g>
						<rect x="54.112" y="12.656" fill="#231F20" width="2" height="3.049"/>
					</g>
					<g>
						<rect x="54.112" y="18.245" fill="#231F20" width="2" height="6.098"/>
					</g>
				</g>
			</g>
			<g>
				<g>
					<g>
						<rect x="47.608" y="25.64" fill="none" width="15" height="22.9"/>
					</g>
					<g>
						<rect x="54.112" y="26.916" fill="#231F20" width="2" height="6.098"/>
					</g>
					<g>
						<rect x="54.112" y="35.555" fill="#231F20" width="2" height="3.049"/>
					</g>
					<g>
						<rect x="54.112" y="41.146" fill="#231F20" width="2" height="6.099"/>
					</g>
				</g>
			</g>
			<g>
				<g>
					<g>
						<rect x="47.608" y="48.54" fill="none" width="15" height="22.899"/>
					</g>
					<g>
						<rect x="54.112" y="49.816" fill="#231F20" width="2" height="6.1"/>
					</g>
					<g>
						<rect x="54.112" y="58.455" fill="#231F20" width="2" height="3.049"/>
					</g>
					<g>
						<rect x="54.112" y="64.045" fill="#231F20" width="2" height="6.098"/>
					</g>
				</g>
			</g>
			<g>
				<g>
					<g>
						<rect x="47.608" y="71.44" fill="none" width="15" height="22.9"/>
					</g>
					<g>
						<rect x="54.112" y="72.716" fill="#231F20" width="2" height="6.098"/>
					</g>
					<g>
						<rect x="54.112" y="81.355" fill="#231F20" width="2" height="3.049"/>
					</g>
					<g>
						<rect x="54.112" y="86.945" fill="#231F20" width="2" height="6.099"/>
					</g>
				</g>
			</g>
			<g>
				<g>
					<g>
						<rect x="47.608" y="94.34" fill="none" width="15" height="22.9"/>
					</g>
					<g>
						<rect x="54.112" y="95.616" fill="#231F20" width="2" height="6.098"/>
					</g>
					<g>
						<rect x="54.112" y="104.255" fill="#231F20" width="2" height="3.049"/>
					</g>
					<g>
						<rect x="54.112" y="109.845" fill="#231F20" width="2" height="6.098"/>
					</g>
				</g>
			</g>
			<g>
				<g>
					<g>
						<rect x="47.608" y="117.24" fill="none" width="15" height="22.899"/>
					</g>
					<g>
						<rect x="54.112" y="118.516" fill="#231F20" width="2" height="6.099"/>
					</g>
					<g>
						<rect x="54.112" y="127.155" fill="#231F20" width="2" height="3.05"/>
					</g>
					<g>
						<rect x="54.112" y="132.745" fill="#231F20" width="2" height="6.098"/>
					</g>
				</g>
			</g>
			<g>
				<g>
					<g>
						<rect x="47.608" y="140.14" fill="none" width="15" height="22.9"/>
					</g>
					<g>
						<rect x="54.112" y="141.416" fill="#231F20" width="2" height="6.098"/>
					</g>
					<g>
						<rect x="54.112" y="150.055" fill="#231F20" width="2" height="3.049"/>
					</g>
					<g>
						<rect x="54.112" y="155.645" fill="#231F20" width="2" height="6.1"/>
					</g>
				</g>
			</g>
			<g>
				<g>
					<g>
						<rect x="47.608" y="163.04" fill="none" width="15" height="22.899"/>
					</g>
					<g>
						<rect x="54.112" y="164.316" fill="#231F20" width="2" height="6.1"/>
					</g>
					<g>
						<rect x="54.112" y="172.956" fill="#231F20" width="2" height="3.049"/>
					</g>
					<g>
						<rect x="54.112" y="178.545" fill="#231F20" width="2" height="6.098"/>
					</g>
				</g>
			</g>
			<g>
				<g>
					<g>
						<rect x="47.608" y="185.94" fill="none" width="15" height="22.899"/>
					</g>
					<g>
						<rect x="54.112" y="187.216" fill="#231F20" width="2" height="6.098"/>
					</g>
					<g>
						<rect x="54.112" y="195.855" fill="#231F20" width="2" height="3.05"/>
					</g>
					<g>
						<rect x="54.112" y="201.445" fill="#231F20" width="2" height="6.1"/>
					</g>
				</g>
			</g>
			<g>
				<g>
					<g>
						<rect x="47.608" y="208.839" fill="none" width="15" height="22.9"/>
					</g>
					<g>
						<rect x="54.112" y="210.116" fill="#231F20" width="2" height="6.099"/>
					</g>
					<g>
						<rect x="54.112" y="218.755" fill="#231F20" width="2" height="3.049"/>
					</g>
					<g>
						<rect x="54.112" y="224.345" fill="#231F20" width="2" height="6.099"/>
					</g>
				</g>
			</g>
		</g>
	</g>
</g>
<g>
	<g>
		<g>
			<g>
				<g>
					<g>
						<rect x="55.108" y="225.24" fill="none" width="23.2" height="15"/>
					</g>
					<g>
						<rect x="56.401" y="231.736" fill="#231F20" width="6.179" height="2"/>
					</g>
					<g>
						<rect x="65.153" y="231.736" fill="#231F20" width="3.091" height="2"/>
					</g>
					<g>
						<rect x="70.817" y="231.736" fill="#231F20" width="6.179" height="2"/>
					</g>
				</g>
			</g>
			<g>
				<g>
					<g>
						<rect x="78.309" y="225.24" fill="none" width="23.2" height="15"/>
					</g>
					<g>
						<rect x="79.602" y="231.736" fill="#231F20" width="6.178" height="2"/>
					</g>
					<g>
						<rect x="88.354" y="231.736" fill="#231F20" width="3.089" height="2"/>
					</g>
					<g>
						<rect x="94.017" y="231.736" fill="#231F20" width="6.179" height="2"/>
					</g>
				</g>
			</g>
			<g>
				<g>
					<g>
						<rect x="101.509" y="225.24" fill="none" width="23.199" height="15"/>
					</g>
					<g>
						<rect x="102.802" y="231.736" fill="#231F20" width="6.178" height="2"/>
					</g>
					<g>
						<rect x="111.554" y="231.736" fill="#231F20" width="3.089" height="2"/>
					</g>
					<g>
						<rect x="117.217" y="231.736" fill="#231F20" width="6.179" height="2"/>
					</g>
				</g>
			</g>
			<g>
				<g>
					<g>
						<rect x="124.708" y="225.24" fill="none" width="23.2" height="15"/>
					</g>
					<g>
						<rect x="126.002" y="231.736" fill="#231F20" width="6.178" height="2"/>
					</g>
					<g>
						<rect x="134.754" y="231.736" fill="#231F20" width="3.089" height="2"/>
					</g>
					<g>
						<rect x="140.417" y="231.736" fill="#231F20" width="6.178" height="2"/>
					</g>
				</g>
			</g>
			<g>
				<g>
					<g>
						<rect x="147.908" y="225.24" fill="none" width="23.199" height="15"/>
					</g>
					<g>
						<rect x="149.201" y="231.736" fill="#231F20" width="6.179" height="2"/>
					</g>
					<g>
						<rect x="157.954" y="231.736" fill="#231F20" width="3.089" height="2"/>
					</g>
					<g>
						<rect x="163.617" y="231.736" fill="#231F20" width="6.178" height="2"/>
					</g>
				</g>
			</g>
		</g>
	</g>
</g>
<g>
	<g>
		<g>
			<g>
				<g>
					<g>
						
							<rect x="34.579" y="233.01" transform="matrix(-0.673 0.7397 -0.7397 -0.673 256.284 367.7094)" fill="none" width="24.55" height="15.001"/>
					</g>
					<g>
						
							<rect x="48.715" y="233.854" transform="matrix(-0.6731 0.7396 -0.7396 -0.6731 260.6628 354.4852)" fill="#231F20" width="6.536" height="2.001"/>
					</g>
					<g>
						
							<rect x="45.222" y="239.488" transform="matrix(-0.673 0.7396 -0.7396 -0.673 256.2627 367.683)" fill="#231F20" width="3.269" height="1.999"/>
					</g>
					<g>
						
							<rect x="38.455" y="245.128" transform="matrix(-0.6729 0.7397 -0.7397 -0.6729 251.8631 380.8926)" fill="#231F20" width="6.538" height="2"/>
					</g>
				</g>
			</g>
			<g>
				<g>
					<g>
						
							<rect x="18.063" y="251.164" transform="matrix(-0.673 0.7397 -0.7397 -0.673 242.0811 410.2952)" fill="none" width="24.549" height="15.001"/>
					</g>
					<g>
						
							<rect x="32.193" y="252.014" transform="matrix(-0.6729 0.7397 -0.7397 -0.6729 246.4804 397.0436)" fill="#231F20" width="6.536" height="2"/>
					</g>
					<g>
						
							<rect x="28.702" y="257.645" transform="matrix(-0.6729 0.7398 -0.7398 -0.6729 242.0884 410.2319)" fill="#231F20" width="3.269" height="2"/>
					</g>
					<g>
						
							<rect x="21.928" y="263.293" transform="matrix(-0.673 0.7396 -0.7396 -0.673 237.6343 423.5274)" fill="#231F20" width="6.537" height="2"/>
					</g>
				</g>
			</g>
			<g>
				<g>
					<g>
						
							<rect x="1.546" y="269.319" transform="matrix(-0.673 0.7397 -0.7397 -0.673 227.8779 452.8864)" fill="none" width="24.549" height="15.002"/>
					</g>
					<g>
						
							<rect x="15.672" y="270.168" transform="matrix(-0.673 0.7396 -0.7396 -0.673 232.2532 439.6564)" fill="#231F20" width="6.537" height="2"/>
					</g>
					<g>
						
							<rect x="12.183" y="275.801" transform="matrix(-0.6729 0.7398 -0.7398 -0.6729 227.8853 452.8253)" fill="#231F20" width="3.269" height="2"/>
					</g>
					<g>
						
							<rect x="5.425" y="281.461" transform="matrix(-0.6729 0.7397 -0.7397 -0.6729 223.4813 466.1079)" fill="#231F20" width="6.538" height="2"/>
					</g>
				</g>
			</g>
		</g>
	</g>
</g>
</svg>
