<?xml version="1.0" encoding="utf-8"?>
<!-- Generator: Adobe Illustrator 16.0.0, SVG Export Plug-In . SVG Version: 6.00 Build 0)  -->
<!DOCTYPE svg PUBLIC "-//W3C//DTD SVG 1.1//EN" "http://www.w3.org/Graphics/SVG/1.1/DTD/svg11.dtd">
<svg version="1.1" id="Layer_1" xmlns="http://www.w3.org/2000/svg" xmlns:xlink="http://www.w3.org/1999/xlink" x="0px" y="0px"
	 width="324.996px" height="202.199px" viewBox="0 0 324.996 202.199" enable-background="new 0 0 324.996 202.199"
	 xml:space="preserve">
<g>
	<path fill="#FFFFFF" d="M275.917,86.429"/>
	<polyline fill="#ACC74E" stroke="#000000" stroke-width="2" stroke-miterlimit="10" points="1.901,1.299 1.003,104.533 94.482,197 
		321.884,197 321.884,91 94.482,91 4.285,1 232.123,1 320.799,90 93.884,91 	"/>
	<line fill="none" stroke="#000000" stroke-width="2" stroke-miterlimit="10" x1="93.884" y1="197" x2="93.884" y2="91"/>
	<g>
		<g>
			<g>
				<g>
					<g>
						<g>
							
								<rect x="301.567" y="181.855" transform="matrix(-0.6985 -0.7156 0.7156 -0.6985 394.7567 545.0279)" fill="none" width="21.251" height="15.002"/>
						</g>
						<g>
							
								<rect x="313.988" y="193.087" transform="matrix(-0.6984 -0.7157 0.7157 -0.6984 399.1859 556.3829)" fill="#231F20" width="5.659" height="1.999"/>
						</g>
						<g>
							
								<rect x="310.797" y="188.361" transform="matrix(-0.6984 -0.7157 0.7157 -0.6984 394.7473 545.0598)" fill="#231F20" width="2.83" height="2"/>
						</g>
						<g>
							
								<rect x="304.763" y="183.639" transform="matrix(-0.6984 -0.7157 0.7157 -0.6984 390.2813 533.7345)" fill="#231F20" width="5.66" height="2"/>
						</g>
					</g>
				</g>
				<g>
					<g>
						<g>
							
								<rect x="286.742" y="166.668" transform="matrix(-0.6986 -0.7156 0.7156 -0.6986 380.468 508.6201)" fill="none" width="21.252" height="15.002"/>
						</g>
						<g>
							
								<rect x="299.142" y="177.881" transform="matrix(-0.6985 -0.7156 0.7156 -0.6985 384.8961 519.9224)" fill="#231F20" width="5.659" height="2.001"/>
						</g>
						<g>
							
								<rect x="295.951" y="173.154" transform="matrix(-0.6984 -0.7157 0.7157 -0.6984 380.416 508.6078)" fill="#231F20" width="2.83" height="2.001"/>
						</g>
						<g>
							
								<rect x="289.925" y="168.43" transform="matrix(-0.6987 -0.7154 0.7154 -0.6987 376.0836 497.2532)" fill="#231F20" width="5.659" height="2.001"/>
						</g>
					</g>
				</g>
				<g>
					<g>
						<g>
							
								<rect x="271.897" y="151.461" transform="matrix(-0.6986 -0.7155 0.7155 -0.6986 366.1456 472.1643)" fill="none" width="21.253" height="15.001"/>
						</g>
						<g>
							
								<rect x="284.305" y="162.674" transform="matrix(-0.6985 -0.7156 0.7156 -0.6985 370.5785 483.4733)" fill="#231F20" width="5.659" height="1.999"/>
						</g>
						<g>
							
								<rect x="281.094" y="157.952" transform="matrix(-0.6984 -0.7157 0.7157 -0.6984 366.0621 472.156)" fill="#231F20" width="2.83" height="2.001"/>
						</g>
						<g>
							
								<rect x="275.074" y="153.226" transform="matrix(-0.6985 -0.7156 0.7156 -0.6985 361.6589 460.8218)" fill="#231F20" width="5.659" height="2.001"/>
						</g>
					</g>
				</g>
				<g>
					<g>
						<g>
							
								<rect x="257.034" y="136.236" transform="matrix(-0.6985 -0.7156 0.7156 -0.6985 351.7627 435.6757)" fill="none" width="21.251" height="15.001"/>
						</g>
						<g>
							
								<rect x="269.453" y="147.468" transform="matrix(-0.6986 -0.7155 0.7155 -0.6986 356.2677 447.0095)" fill="#231F20" width="5.659" height="2"/>
						</g>
						<g>
							
								<rect x="266.262" y="142.741" transform="matrix(-0.6988 -0.7153 0.7153 -0.6988 351.897 435.6634)" fill="#231F20" width="2.829" height="1.999"/>
						</g>
						<g>
							
								<rect x="260.229" y="138.018" transform="matrix(-0.6984 -0.7157 0.7157 -0.6984 347.2918 424.38)" fill="#231F20" width="5.659" height="2.001"/>
						</g>
					</g>
				</g>
				<g>
					<g>
						<g>
							
								<rect x="242.191" y="121.029" transform="matrix(-0.6985 -0.7156 0.7156 -0.6985 337.4332 399.2254)" fill="none" width="21.251" height="15.002"/>
						</g>
						<g>
							
								<rect x="254.608" y="132.261" transform="matrix(-0.6985 -0.7156 0.7156 -0.6985 341.9006 410.5678)" fill="#231F20" width="5.659" height="2.001"/>
						</g>
						<g>
							
								<rect x="251.416" y="127.534" transform="matrix(-0.6986 -0.7155 0.7155 -0.6986 337.4907 399.2328)" fill="#231F20" width="2.829" height="2.001"/>
						</g>
						<g>
							
								<rect x="245.395" y="122.809" transform="matrix(-0.6986 -0.7155 0.7155 -0.6986 333.0481 387.9083)" fill="#231F20" width="5.659" height="1.999"/>
						</g>
					</g>
				</g>
				<g>
					<g>
						<g>
							
								<rect x="227.361" y="105.836" transform="matrix(-0.6986 -0.7155 0.7155 -0.6986 323.1437 362.7996)" fill="none" width="21.253" height="15.002"/>
						</g>
						<g>
							
								<rect x="239.769" y="117.053" transform="matrix(-0.6986 -0.7155 0.7155 -0.6986 327.6095 374.1075)" fill="#231F20" width="5.659" height="2.001"/>
						</g>
						<g>
							
								<rect x="236.561" y="112.334" transform="matrix(-0.6984 -0.7157 0.7157 -0.6984 323.0736 362.8033)" fill="#231F20" width="2.83" height="2"/>
						</g>
						<g>
							
								<rect x="230.54" y="107.606" transform="matrix(-0.6985 -0.7156 0.7156 -0.6985 318.6634 351.4673)" fill="#231F20" width="5.659" height="2"/>
						</g>
					</g>
				</g>
			</g>
		</g>
	</g>
	<g>
		<g>
			<g>
				<g>
					<g>
						<g>
							<rect x="207.307" y="97.698" fill="none" width="22.73" height="15"/>
						</g>
						<g>
							<rect x="222.717" y="104.203" fill="#231F20" width="6.055" height="2"/>
						</g>
						<g>
							<rect x="217.168" y="104.203" fill="#231F20" width="3.025" height="2"/>
						</g>
						<g>
							<rect x="208.592" y="104.203" fill="#231F20" width="6.055" height="2"/>
						</g>
					</g>
				</g>
				<g>
					<g>
						<g>
							<rect x="184.575" y="97.698" fill="none" width="22.731" height="15"/>
						</g>
						<g>
							<rect x="199.986" y="104.203" fill="#231F20" width="6.053" height="2"/>
						</g>
						<g>
							<rect x="194.438" y="104.203" fill="#231F20" width="3.025" height="2"/>
						</g>
						<g>
							<rect x="185.861" y="104.203" fill="#231F20" width="6.054" height="2"/>
						</g>
					</g>
				</g>
				<g>
					<g>
						<g>
							<rect x="161.842" y="97.698" fill="none" width="22.732" height="15"/>
						</g>
						<g>
							<rect x="177.253" y="104.203" fill="#231F20" width="6.054" height="2"/>
						</g>
						<g>
							<rect x="171.705" y="104.203" fill="#231F20" width="3.027" height="2"/>
						</g>
						<g>
							<rect x="163.129" y="104.203" fill="#231F20" width="6.055" height="2"/>
						</g>
					</g>
				</g>
				<g>
					<g>
						<g>
							<rect x="139.111" y="97.698" fill="none" width="22.731" height="15"/>
						</g>
						<g>
							<rect x="154.522" y="104.203" fill="#231F20" width="6.054" height="2"/>
						</g>
						<g>
							<rect x="148.973" y="104.203" fill="#231F20" width="3.027" height="2"/>
						</g>
						<g>
							<rect x="140.398" y="104.203" fill="#231F20" width="6.053" height="2"/>
						</g>
					</g>
				</g>
				<g>
					<g>
						<g>
							<rect x="116.379" y="97.698" fill="none" width="22.731" height="15"/>
						</g>
						<g>
							<rect x="131.791" y="104.203" fill="#231F20" width="6.054" height="2"/>
						</g>
						<g>
							<rect x="126.242" y="104.203" fill="#231F20" width="3.026" height="2"/>
						</g>
						<g>
							<rect x="117.667" y="104.203" fill="#231F20" width="6.053" height="2"/>
						</g>
					</g>
				</g>
				<g>
					<g>
						<g>
							<rect x="93.648" y="97.698" fill="none" width="22.731" height="15"/>
						</g>
						<g>
							<rect x="109.059" y="104.203" fill="#231F20" width="6.054" height="2"/>
						</g>
						<g>
							<rect x="103.51" y="104.203" fill="#231F20" width="3.026" height="2"/>
						</g>
						<g>
							<rect x="94.934" y="104.203" fill="#231F20" width="6.054" height="2"/>
						</g>
					</g>
				</g>
				<g>
					<g>
						<g>
							<rect x="70.917" y="97.698" fill="none" width="22.731" height="15"/>
						</g>
						<g>
							<rect x="86.328" y="104.203" fill="#231F20" width="6.053" height="2"/>
						</g>
						<g>
							<rect x="80.779" y="104.203" fill="#231F20" width="3.026" height="2"/>
						</g>
						<g>
							<rect x="72.203" y="104.203" fill="#231F20" width="6.054" height="2"/>
						</g>
					</g>
				</g>
				<g>
					<g>
						<g>
							<rect x="48.184" y="97.698" fill="none" width="22.732" height="15"/>
						</g>
						<g>
							<rect x="63.595" y="104.203" fill="#231F20" width="6.054" height="2"/>
						</g>
						<g>
							<rect x="58.046" y="104.203" fill="#231F20" width="3.027" height="2"/>
						</g>
						<g>
							<rect x="49.471" y="104.203" fill="#231F20" width="6.054" height="2"/>
						</g>
					</g>
				</g>
				<g>
					<g>
						<g>
							<rect x="25.453" y="97.698" fill="none" width="22.731" height="15"/>
						</g>
						<g>
							<rect x="40.864" y="104.203" fill="#231F20" width="6.054" height="2"/>
						</g>
						<g>
							<rect x="35.315" y="104.203" fill="#231F20" width="3.027" height="2"/>
						</g>
						<g>
							<rect x="26.74" y="104.203" fill="#231F20" width="6.053" height="2"/>
						</g>
					</g>
				</g>
				<g>
					<g>
						<g>
							<rect x="2.721" y="97.698" fill="none" width="22.731" height="15"/>
						</g>
						<g>
							<rect x="18.132" y="104.203" fill="#231F20" width="6.054" height="2"/>
						</g>
						<g>
							<rect x="12.583" y="104.203" fill="#231F20" width="3.027" height="2"/>
						</g>
						<g>
							<rect x="4.008" y="104.203" fill="#231F20" width="6.053" height="2"/>
						</g>
					</g>
				</g>
			</g>
		</g>
	</g>
	<g>
		<g>
			<g>
				<g>
					<g>
						<g>
							<rect x="222.539" y="3.009" fill="none" width="14.998" height="13.034"/>
						</g>
						<rect x="229.068" y="12.661" fill="#231F20" width="1.5" height="2.419"/>
						<rect x="229.068" y="8.322" fill="#231F20" width="1.5" height="2.419"/>
						<rect x="229.068" y="3.997" fill="#231F20" width="1.5" height="2.419"/>
					</g>
				</g>
				<g>
					<g>
						<g>
							<rect x="222.539" y="16.043" fill="none" width="14.998" height="13.034"/>
						</g>
						<rect x="229.068" y="25.695" fill="#231F20" width="1.5" height="2.419"/>
						<rect x="229.068" y="21.356" fill="#231F20" width="1.5" height="2.419"/>
						<rect x="229.068" y="17.031" fill="#231F20" width="1.5" height="2.419"/>
					</g>
				</g>
				<g>
					<g>
						<g>
							<rect x="222.539" y="29.078" fill="none" width="14.998" height="13.034"/>
						</g>
						<rect x="229.068" y="38.729" fill="#231F20" width="1.5" height="2.419"/>
						<rect x="229.068" y="34.391" fill="#231F20" width="1.5" height="2.419"/>
						<rect x="229.068" y="30.065" fill="#231F20" width="1.5" height="2.419"/>
					</g>
				</g>
				<g>
					<g>
						<g>
							<rect x="222.539" y="42.112" fill="none" width="14.998" height="13.035"/>
						</g>
						<rect x="229.068" y="51.764" fill="#231F20" width="1.5" height="2.419"/>
						<rect x="229.068" y="47.425" fill="#231F20" width="1.5" height="2.419"/>
						<rect x="229.068" y="43.1" fill="#231F20" width="1.5" height="2.419"/>
					</g>
				</g>
				<g>
					<g>
						<g>
							<rect x="222.539" y="55.146" fill="none" width="14.998" height="13.034"/>
						</g>
						<rect x="229.068" y="64.798" fill="#231F20" width="1.5" height="2.419"/>
						<rect x="229.068" y="60.459" fill="#231F20" width="1.5" height="2.419"/>
						<rect x="229.068" y="56.134" fill="#231F20" width="1.5" height="2.419"/>
					</g>
				</g>
				<g>
					<g>
						<g>
							<rect x="222.539" y="68.181" fill="none" width="14.998" height="13.034"/>
						</g>
						<rect x="229.068" y="77.833" fill="#231F20" width="1.5" height="2.419"/>
						<rect x="229.068" y="73.493" fill="#231F20" width="1.5" height="2.419"/>
						<rect x="229.068" y="69.168" fill="#231F20" width="1.5" height="2.419"/>
					</g>
				</g>
				<g>
					<g>
						<g>
							<rect x="222.539" y="81.215" fill="none" width="14.998" height="13.034"/>
						</g>
						<rect x="229.068" y="90.867" fill="#231F20" width="1.5" height="2.419"/>
						<rect x="229.068" y="86.527" fill="#231F20" width="1.5" height="2.419"/>
						<rect x="229.068" y="82.202" fill="#231F20" width="1.5" height="2.419"/>
					</g>
				</g>
				<g>
					<g>
						<g>
							<rect x="222.539" y="94.249" fill="none" width="14.998" height="13.034"/>
						</g>
						<rect x="229.068" y="103.901" fill="#231F20" width="1.5" height="2.419"/>
						<rect x="229.068" y="99.562" fill="#231F20" width="1.5" height="2.419"/>
						<rect x="229.068" y="95.236" fill="#231F20" width="1.5" height="2.419"/>
					</g>
				</g>
			</g>
		</g>
	</g>
</g>
</svg>
