<?xml version="1.0" encoding="utf-8"?>
<!-- Generator: Adobe Illustrator 16.0.0, SVG Export Plug-In . SVG Version: 6.00 Build 0)  -->
<!DOCTYPE svg PUBLIC "-//W3C//DTD SVG 1.1//EN" "http://www.w3.org/Graphics/SVG/1.1/DTD/svg11.dtd">
<svg version="1.1" id="Layer_1" xmlns="http://www.w3.org/2000/svg" xmlns:xlink="http://www.w3.org/1999/xlink" x="0px" y="0px"
	 width="315.479px" height="478.75px" viewBox="0 0 315.479 478.75" enable-background="new 0 0 315.479 478.75"
	 xml:space="preserve">
<polygon fill="#169384" stroke="#000000" stroke-width="4" stroke-miterlimit="10" points="158.593,6.488 306.903,466.818 
	8.577,466.818 "/>
<g>
	<g>
		<g>
			<g>
				<g>
					<g>
						
							<rect x="4.496" y="438.45" transform="matrix(-0.8204 0.5717 -0.5717 -0.8204 308.8149 809.91)" fill="none" width="45.452" height="30.001"/>
					</g>
					<g>
						
							<rect x="9.564" y="459.528" transform="matrix(-0.8205 0.5717 -0.5717 -0.8205 292.289 831.2635)" fill="#231F20" width="12.104" height="4"/>
					</g>
					<g>
						
							<rect x="24.176" y="451.454" transform="matrix(-0.8204 0.5717 -0.5717 -0.8204 308.7809 809.929)" fill="#231F20" width="6.052" height="4"/>
					</g>
					<g>
						
							<rect x="32.735" y="443.381" transform="matrix(-0.8205 0.5717 -0.5717 -0.8205 325.2389 788.6207)" fill="#231F20" width="12.104" height="4"/>
					</g>
				</g>
			</g>
			<g>
				<g>
					<g>
						
							<rect x="41.787" y="412.463" transform="matrix(-0.8204 0.5717 -0.5717 -0.8204 361.8401 741.2829)" fill="none" width="45.453" height="30.001"/>
					</g>
					<g>
						
							<rect x="46.855" y="433.541" transform="matrix(-0.8204 0.5717 -0.5717 -0.8204 345.3259 762.6284)" fill="#231F20" width="12.103" height="4"/>
					</g>
					<g>
						
							<rect x="61.466" y="425.467" transform="matrix(-0.8205 0.5717 -0.5717 -0.8205 361.7928 741.3138)" fill="#231F20" width="6.052" height="4"/>
					</g>
					<g>
						
							<rect x="70.026" y="417.393" transform="matrix(-0.8205 0.5717 -0.5717 -0.8205 378.2682 719.9923)" fill="#231F20" width="12.104" height="4"/>
					</g>
				</g>
			</g>
			<g>
				<g>
					<g>
						
							<rect x="79.078" y="386.475" transform="matrix(-0.8204 0.5717 -0.5717 -0.8204 414.8679 672.6539)" fill="none" width="45.453" height="30.001"/>
					</g>
					<g>
						
							<rect x="84.146" y="407.553" transform="matrix(-0.8204 0.5717 -0.5717 -0.8204 398.3538 693.9998)" fill="#231F20" width="12.103" height="4"/>
					</g>
					<g>
						
							<rect x="98.757" y="399.48" transform="matrix(-0.8205 0.5717 -0.5717 -0.8205 414.8221 672.6854)" fill="#231F20" width="6.052" height="4"/>
					</g>
					<g>
						
							<rect x="107.317" y="391.406" transform="matrix(-0.8204 0.5717 -0.5717 -0.8204 431.3035 651.3566)" fill="#231F20" width="12.103" height="4"/>
					</g>
				</g>
			</g>
			<g>
				<g>
					<g>
						
							<rect x="116.369" y="360.488" transform="matrix(-0.8204 0.5717 -0.5717 -0.8204 467.8966 604.0231)" fill="none" width="45.452" height="30.001"/>
					</g>
					<g>
						
							<rect x="121.436" y="381.566" transform="matrix(-0.8205 0.5717 -0.5717 -0.8205 451.3761 625.3785)" fill="#231F20" width="12.104" height="4"/>
					</g>
					<g>
						
							<rect x="136.048" y="373.492" transform="matrix(-0.8205 0.5717 -0.5717 -0.8205 467.8515 604.057)" fill="#231F20" width="6.052" height="4"/>
					</g>
					<g>
						
							<rect x="144.608" y="365.419" transform="matrix(-0.8205 0.5717 -0.5717 -0.8205 484.3269 582.7355)" fill="#231F20" width="12.104" height="4"/>
					</g>
				</g>
			</g>
		</g>
	</g>
</g>
<g>
	<g>
		<g>
			<g>
				<g>
					<g>
						
							<rect x="153.659" y="360.488" transform="matrix(-0.8204 -0.5717 0.5717 -0.8204 106.4131 784.3979)" fill="none" width="45.452" height="30.001"/>
					</g>
					<g>
						
							<rect x="158.737" y="365.396" transform="matrix(-0.8205 -0.5717 0.5717 -0.8205 89.9451 763.0402)" fill="#231F20" width="12.104" height="4"/>
					</g>
					<g>
						
							<rect x="173.348" y="373.47" transform="matrix(-0.8204 -0.5717 0.5717 -0.8204 106.4011 784.3583)" fill="#231F20" width="6.052" height="4"/>
					</g>
					<g>
						
							<rect x="181.908" y="381.544" transform="matrix(-0.8205 -0.5717 0.5717 -0.8205 122.895 805.6829)" fill="#231F20" width="12.104" height="4"/>
					</g>
				</g>
			</g>
			<g>
				<g>
					<g>
						
							<rect x="190.95" y="386.475" transform="matrix(-0.8204 -0.5717 0.5717 -0.8204 159.4428 853.0272)" fill="none" width="45.453" height="30.001"/>
					</g>
					<g>
						
							<rect x="196.028" y="391.384" transform="matrix(-0.8205 -0.5717 0.5717 -0.8205 142.9744 831.6686)" fill="#231F20" width="12.104" height="4"/>
					</g>
					<g>
						
							<rect x="210.639" y="399.457" transform="matrix(-0.8204 -0.5717 0.5717 -0.8204 159.4285 852.9874)" fill="#231F20" width="6.052" height="4"/>
					</g>
					<g>
						
							<rect x="219.199" y="407.531" transform="matrix(-0.8205 -0.5717 0.5717 -0.8205 175.9243 874.3114)" fill="#231F20" width="12.104" height="4"/>
					</g>
				</g>
			</g>
			<g>
				<g>
					<g>
						
							<rect x="228.241" y="412.462" transform="matrix(-0.8204 -0.5717 0.5717 -0.8204 212.4706 921.6563)" fill="none" width="45.453" height="30.001"/>
					</g>
					<g>
						
							<rect x="233.318" y="417.371" transform="matrix(-0.8205 -0.5717 0.5717 -0.8205 196.0029 900.2967)" fill="#231F20" width="12.104" height="4"/>
					</g>
					<g>
						
							<rect x="247.93" y="425.445" transform="matrix(-0.8204 -0.5717 0.5717 -0.8204 212.4559 921.6166)" fill="#231F20" width="6.052" height="4"/>
					</g>
					<g>
						
							<rect x="256.489" y="433.519" transform="matrix(-0.8205 -0.5717 0.5717 -0.8205 228.9527 942.9395)" fill="#231F20" width="12.104" height="4"/>
					</g>
				</g>
			</g>
			<g>
				<g>
					<g>
						
							<rect x="265.531" y="438.45" transform="matrix(-0.8204 -0.5717 0.5717 -0.8204 265.4974 990.285)" fill="none" width="45.453" height="30"/>
					</g>
					<g>
						
							<rect x="270.61" y="443.358" transform="matrix(-0.8204 -0.5717 0.5717 -0.8204 249.008 968.9239)" fill="#231F20" width="12.103" height="4"/>
					</g>
					<g>
						
							<rect x="285.22" y="451.432" transform="matrix(-0.8205 -0.5717 0.5717 -0.8205 265.5319 990.2476)" fill="#231F20" width="6.052" height="4"/>
					</g>
					<g>
						
							<rect x="293.781" y="459.506" transform="matrix(-0.8204 -0.5717 0.5717 -0.8204 281.9567 1011.5671)" fill="#231F20" width="12.103" height="4"/>
					</g>
				</g>
			</g>
		</g>
	</g>
</g>
<g>
	<g>
		<g>
			<g>
				<g>
					<g>
						<rect x="142.518" y="319.053" fill="none" width="30" height="43.441"/>
					</g>
					<g>
						<rect x="155.511" y="348.505" fill="#231F20" width="4" height="11.568"/>
					</g>
					<g>
						<rect x="155.511" y="337.901" fill="#231F20" width="4" height="5.784"/>
					</g>
					<g>
						<rect x="155.511" y="321.512" fill="#231F20" width="4" height="11.568"/>
					</g>
				</g>
			</g>
			<g>
				<g>
					<g>
						<rect x="142.518" y="275.612" fill="none" width="30" height="43.441"/>
					</g>
					<g>
						<rect x="155.511" y="305.064" fill="#231F20" width="4" height="11.568"/>
					</g>
					<g>
						<rect x="155.511" y="294.459" fill="#231F20" width="4" height="5.784"/>
					</g>
					<g>
						<rect x="155.511" y="278.071" fill="#231F20" width="4" height="11.568"/>
					</g>
				</g>
			</g>
			<g>
				<g>
					<g>
						<rect x="142.518" y="232.17" fill="none" width="30" height="43.441"/>
					</g>
					<g>
						<rect x="155.511" y="261.623" fill="#231F20" width="4" height="11.568"/>
					</g>
					<g>
						<rect x="155.511" y="251.018" fill="#231F20" width="4" height="5.784"/>
					</g>
					<g>
						<rect x="155.511" y="234.629" fill="#231F20" width="4" height="11.568"/>
					</g>
				</g>
			</g>
			<g>
				<g>
					<g>
						<rect x="142.518" y="188.729" fill="none" width="30" height="43.441"/>
					</g>
					<g>
						<rect x="155.511" y="218.181" fill="#231F20" width="4" height="11.568"/>
					</g>
					<g>
						<rect x="155.511" y="207.577" fill="#231F20" width="4" height="5.784"/>
					</g>
					<g>
						<rect x="155.511" y="191.188" fill="#231F20" width="4" height="11.568"/>
					</g>
				</g>
			</g>
			<g>
				<g>
					<g>
						<rect x="142.518" y="145.288" fill="none" width="30" height="43.441"/>
					</g>
					<g>
						<rect x="155.511" y="174.739" fill="#231F20" width="4" height="11.568"/>
					</g>
					<g>
						<rect x="155.511" y="164.135" fill="#231F20" width="4" height="5.784"/>
					</g>
					<g>
						<rect x="155.511" y="147.747" fill="#231F20" width="4" height="11.568"/>
					</g>
				</g>
			</g>
			<g>
				<g>
					<g>
						<rect x="142.518" y="101.846" fill="none" width="30" height="43.441"/>
					</g>
					<g>
						<rect x="155.511" y="131.298" fill="#231F20" width="4" height="11.568"/>
					</g>
					<g>
						<rect x="155.511" y="120.694" fill="#231F20" width="4" height="5.784"/>
					</g>
					<g>
						<rect x="155.511" y="104.305" fill="#231F20" width="4" height="11.568"/>
					</g>
				</g>
			</g>
			<g>
				<g>
					<g>
						<rect x="142.518" y="58.405" fill="none" width="30" height="43.441"/>
					</g>
					<g>
						<rect x="155.511" y="87.856" fill="#231F20" width="4" height="11.568"/>
					</g>
					<g>
						<rect x="155.511" y="77.252" fill="#231F20" width="4" height="5.784"/>
					</g>
					<g>
						<rect x="155.511" y="60.864" fill="#231F20" width="4" height="11.568"/>
					</g>
				</g>
			</g>
			<g>
				<g>
					<g>
						<rect x="142.518" y="14.963" fill="none" width="30" height="43.441"/>
					</g>
					<g>
						<rect x="155.511" y="44.415" fill="#231F20" width="4" height="11.568"/>
					</g>
					<g>
						<rect x="155.511" y="33.811" fill="#231F20" width="4" height="5.784"/>
					</g>
					<g>
						<rect x="155.511" y="17.422" fill="#231F20" width="4" height="11.568"/>
					</g>
				</g>
			</g>
		</g>
	</g>
</g>
</svg>
