<?xml version="1.0" encoding="utf-8"?>
<!-- Generator: Adobe Illustrator 16.0.0, SVG Export Plug-In . SVG Version: 6.00 Build 0)  -->
<!DOCTYPE svg PUBLIC "-//W3C//DTD SVG 1.1//EN" "http://www.w3.org/Graphics/SVG/1.1/DTD/svg11.dtd">
<svg version="1.1" id="Layer_1" xmlns="http://www.w3.org/2000/svg" xmlns:xlink="http://www.w3.org/1999/xlink" x="0px" y="0px"
	 width="218px" height="349.875px" viewBox="0 0 218 349.875" enable-background="new 0 0 218 349.875" xml:space="preserve">
<rect x="2" y="53.875" fill="#ACC74E" stroke="#000000" stroke-width="4" stroke-miterlimit="10" width="214" height="281"/>
<polyline fill="#ACC74E" stroke="#000000" stroke-width="4" stroke-miterlimit="10" points="216,51.875 110,2.205 2,51.875 "/>
<g>
	<polygon fill="#ACC74E" points="7,334.875 109,268.941 211,334.875 	"/>
	<g>
		<g>
			<g>
				<g>
					<g>
						
							<rect x="112.273" y="275.74" transform="matrix(0.8398 0.5429 -0.5429 0.8398 180.7067 -30.9128)" fill="none" width="60.92" height="30.003"/>
					</g>
					<g>
						
							<rect x="118.717" y="278.448" transform="matrix(0.8398 0.5429 -0.5429 0.8398 172.5912 -23.9241)" fill="#231F20" width="16.224" height="3.999"/>
					</g>
					<g>
						
							<rect x="138.642" y="288.72" transform="matrix(0.8398 0.5429 -0.5429 0.8398 180.7004 -30.8956)" fill="#231F20" width="8.112" height="3.999"/>
					</g>
					<g>
						
							<rect x="150.503" y="298.995" transform="matrix(0.8398 0.5429 -0.5429 0.8398 188.8128 -37.8926)" fill="#231F20" width="16.224" height="4"/>
					</g>
				</g>
			</g>
			<g>
				<g>
					<g>
						<rect x="109" y="319.875" fill="none" width="51.162" height="30"/>
					</g>
					<g>
						<rect x="143.688" y="332.883" fill="#231F20" width="13.623" height="4"/>
					</g>
					<g>
						<rect x="131.197" y="332.883" fill="#231F20" width="6.813" height="4"/>
					</g>
					<g>
						<rect x="111.896" y="332.883" fill="#231F20" width="13.625" height="4"/>
					</g>
				</g>
			</g>
			<g>
				<g>
					<g>
						<rect x="57.838" y="319.875" fill="none" width="51.162" height="30"/>
					</g>
					<g>
						<rect x="92.524" y="332.883" fill="#231F20" width="13.625" height="4"/>
					</g>
					<g>
						<rect x="80.035" y="332.883" fill="#231F20" width="6.812" height="4"/>
					</g>
					<g>
						<rect x="60.734" y="332.883" fill="#231F20" width="13.625" height="4"/>
					</g>
				</g>
			</g>
			<g>
				<g>
					<g>
						
							<rect x="44.809" y="275.747" transform="matrix(0.8398 -0.5429 0.5429 0.8398 -145.7896 87.4433)" fill="none" width="60.921" height="30.001"/>
					</g>
					<g>
						
							<rect x="51.241" y="299.026" transform="matrix(0.8398 -0.5429 0.5429 0.8398 -153.9089 80.4385)" fill="#231F20" width="16.223" height="3.998"/>
					</g>
					<g>
						
							<rect x="71.185" y="288.757" transform="matrix(0.8398 -0.5429 0.5429 0.8398 -145.7964 87.4261)" fill="#231F20" width="8.111" height="4"/>
					</g>
					<g>
						
							<rect x="83.021" y="278.487" transform="matrix(0.8398 -0.5429 0.5429 0.8398 -137.669 94.401)" fill="#231F20" width="16.223" height="4"/>
					</g>
				</g>
			</g>
			<g>
				<polygon fill="#231F20" points="168.615,332.909 168.615,336.909 217.861,336.909 176.706,310.296 174.527,313.667 
					204.26,332.909 				"/>
			</g>
			<g>
				<polygon fill="#231F20" points="43.663,313.517 41.492,310.158 0.133,336.893 49.144,336.901 49.144,332.887 13.728,332.868 
									"/>
			</g>
			<g>
				<polygon fill="#231F20" points="114.723,274.982 116.893,271.623 109.005,266.523 101.15,271.605 103.329,274.977 
					109.012,271.292 				"/>
			</g>
		</g>
	</g>
</g>
<g>
	<g>
		<g>
			<g>
				<g>
					<g>
						<rect x="94" y="223.708" fill="none" width="30.001" height="44.167"/>
					</g>
					<g>
						<rect x="106.992" y="253.652" fill="#231F20" width="4" height="11.762"/>
					</g>
					<g>
						<rect x="106.992" y="242.871" fill="#231F20" width="4" height="5.881"/>
					</g>
					<g>
						<rect x="106.992" y="226.208" fill="#231F20" width="4" height="11.762"/>
					</g>
				</g>
			</g>
			<g>
				<g>
					<g>
						<rect x="94" y="179.542" fill="none" width="30.001" height="44.166"/>
					</g>
					<g>
						<rect x="106.992" y="209.486" fill="#231F20" width="4" height="11.761"/>
					</g>
					<g>
						<rect x="106.992" y="198.705" fill="#231F20" width="4" height="5.881"/>
					</g>
					<g>
						<rect x="106.992" y="182.042" fill="#231F20" width="4" height="11.761"/>
					</g>
				</g>
			</g>
			<g>
				<g>
					<g>
						<rect x="94" y="135.375" fill="none" width="30.001" height="44.167"/>
					</g>
					<g>
						<rect x="106.992" y="165.319" fill="#231F20" width="4" height="11.762"/>
					</g>
					<g>
						<rect x="106.992" y="154.538" fill="#231F20" width="4" height="5.881"/>
					</g>
					<g>
						<rect x="106.992" y="137.875" fill="#231F20" width="4" height="11.762"/>
					</g>
				</g>
			</g>
			<g>
				<g>
					<g>
						<rect x="94" y="91.209" fill="none" width="30.001" height="44.167"/>
					</g>
					<g>
						<rect x="106.992" y="121.152" fill="#231F20" width="4" height="11.761"/>
					</g>
					<g>
						<rect x="106.992" y="110.371" fill="#231F20" width="4" height="5.88"/>
					</g>
					<g>
						<rect x="106.992" y="93.709" fill="#231F20" width="4" height="11.761"/>
					</g>
				</g>
			</g>
			<g>
				<g>
					<g>
						<rect x="94" y="47.042" fill="none" width="30.001" height="44.167"/>
					</g>
					<g>
						<rect x="106.992" y="76.986" fill="#231F20" width="4" height="11.761"/>
					</g>
					<g>
						<rect x="106.992" y="66.204" fill="#231F20" width="4" height="5.881"/>
					</g>
					<g>
						<rect x="106.992" y="49.542" fill="#231F20" width="4" height="11.762"/>
					</g>
				</g>
			</g>
			<g>
				<g>
					<g>
						<rect x="94" y="2.875" fill="none" width="30.001" height="44.167"/>
					</g>
					<g>
						<rect x="106.992" y="32.819" fill="#231F20" width="4" height="11.762"/>
					</g>
					<g>
						<rect x="106.992" y="22.038" fill="#231F20" width="4" height="5.881"/>
					</g>
					<g>
						<rect x="106.992" y="5.375" fill="#231F20" width="4" height="11.762"/>
					</g>
				</g>
			</g>
		</g>
	</g>
</g>
</svg>
